G04 #@! TF.FileFunction,Soldermask,Top*
%FSLAX46Y46*%
G04 Gerber Fmt 4.6, Leading zero omitted, Abs format (unit mm)*
G04 Created by KiCad (PCBNEW 4.0.4-stable) date Sat Dec 29 17:50:43 2018*
%MOMM*%
%LPD*%
G01*
G04 APERTURE LIST*
%ADD10C,0.100000*%
%ADD11R,0.700000X0.750000*%
%ADD12R,0.750000X0.700000*%
%ADD13R,0.750000X0.750000*%
%ADD14R,4.464000X4.464000*%
G04 APERTURE END LIST*
D10*
D11*
X152670000Y-101600000D03*
X153230000Y-101600000D03*
X148730000Y-101600000D03*
X148170000Y-101600000D03*
D12*
X150700000Y-103820000D03*
X150700000Y-104380000D03*
X148700000Y-99850000D03*
X148700000Y-100410000D03*
X152700000Y-99820000D03*
X152700000Y-100380000D03*
X150700000Y-98320000D03*
X150700000Y-98880000D03*
X148700000Y-94320000D03*
X148700000Y-94880000D03*
X152700000Y-94350000D03*
X152700000Y-94910000D03*
X150700000Y-92820000D03*
X150700000Y-93380000D03*
D13*
X149700000Y-104775000D03*
X149725000Y-103425000D03*
X151700000Y-104775000D03*
X151725000Y-103425000D03*
X149700000Y-102275000D03*
X149725000Y-100925000D03*
X151700000Y-102275000D03*
X151725000Y-100925000D03*
X149675000Y-99275000D03*
X149700000Y-97925000D03*
X151700000Y-99275000D03*
X151725000Y-97925000D03*
X149700000Y-96775000D03*
X149725000Y-95425000D03*
X151700000Y-96775000D03*
X151725000Y-95425000D03*
X149700000Y-93775000D03*
X149725000Y-92425000D03*
X151700000Y-93775000D03*
X151725000Y-92425000D03*
X149700000Y-91275000D03*
X149725000Y-89925000D03*
X151700000Y-91275000D03*
X151725000Y-89925000D03*
D14*
X156200000Y-101100000D03*
X145200000Y-101100000D03*
M02*
