G04 #@! TF.FileFunction,Copper,L1,Top,Signal*
%FSLAX46Y46*%
G04 Gerber Fmt 4.6, Leading zero omitted, Abs format (unit mm)*
G04 Created by KiCad (PCBNEW 4.0.4-stable) date Sat Dec 29 17:50:43 2018*
%MOMM*%
%LPD*%
G01*
G04 APERTURE LIST*
%ADD10C,0.100000*%
%ADD11R,0.300000X0.350000*%
%ADD12R,0.350000X0.300000*%
%ADD13R,0.350000X0.350000*%
%ADD14R,4.064000X4.064000*%
%ADD15C,0.600000*%
%ADD16C,0.250000*%
G04 APERTURE END LIST*
D10*
D11*
X152670000Y-101600000D03*
X153230000Y-101600000D03*
X148730000Y-101600000D03*
X148170000Y-101600000D03*
D12*
X150700000Y-103820000D03*
X150700000Y-104380000D03*
X148700000Y-99850000D03*
X148700000Y-100410000D03*
X152700000Y-99820000D03*
X152700000Y-100380000D03*
X150700000Y-98320000D03*
X150700000Y-98880000D03*
X148700000Y-94320000D03*
X148700000Y-94880000D03*
X152700000Y-94350000D03*
X152700000Y-94910000D03*
X150700000Y-92820000D03*
X150700000Y-93380000D03*
D13*
X149700000Y-104775000D03*
X149725000Y-103425000D03*
X151700000Y-104775000D03*
X151725000Y-103425000D03*
X149700000Y-102275000D03*
X149725000Y-100925000D03*
X151700000Y-102275000D03*
X151725000Y-100925000D03*
X149675000Y-99275000D03*
X149700000Y-97925000D03*
X151700000Y-99275000D03*
X151725000Y-97925000D03*
X149700000Y-96775000D03*
X149725000Y-95425000D03*
X151700000Y-96775000D03*
X151725000Y-95425000D03*
X149700000Y-93775000D03*
X149725000Y-92425000D03*
X151700000Y-93775000D03*
X151725000Y-92425000D03*
X149700000Y-91275000D03*
X149725000Y-89925000D03*
X151700000Y-91275000D03*
X151725000Y-89925000D03*
D14*
X156200000Y-101100000D03*
X145200000Y-101100000D03*
D15*
X150700000Y-102400000D03*
X150700000Y-105800000D03*
X150700000Y-96300000D03*
X150700000Y-91300000D03*
D16*
X148700000Y-100410000D02*
X148700000Y-101570000D01*
X148700000Y-101570000D02*
X148730000Y-101600000D01*
X149700000Y-102275000D02*
X149700000Y-103400000D01*
X149700000Y-103400000D02*
X149725000Y-103425000D01*
X148730000Y-102230000D02*
X148775000Y-102275000D01*
X148775000Y-102275000D02*
X149700000Y-102275000D01*
X148730000Y-101600000D02*
X148730000Y-102230000D01*
X148170000Y-101600000D02*
X145700000Y-101600000D01*
X145700000Y-101600000D02*
X145200000Y-101100000D01*
X152700000Y-100380000D02*
X152700000Y-101570000D01*
X152700000Y-101570000D02*
X152670000Y-101600000D01*
X152675000Y-102275000D02*
X152670000Y-102270000D01*
X152670000Y-102270000D02*
X152670000Y-101600000D01*
X151700000Y-102275000D02*
X152675000Y-102275000D01*
X151725000Y-103425000D02*
X151725000Y-102300000D01*
X151725000Y-102300000D02*
X151700000Y-102275000D01*
X153230000Y-101600000D02*
X155700000Y-101600000D01*
X155700000Y-101600000D02*
X156200000Y-101100000D01*
X149675000Y-99275000D02*
X150695000Y-99275000D01*
X150695000Y-99275000D02*
X150700000Y-99280000D01*
X151700000Y-99275000D02*
X150705000Y-99275000D01*
X150705000Y-99275000D02*
X150700000Y-99280000D01*
X151700000Y-100900000D02*
X151725000Y-100925000D01*
X149675000Y-100875000D02*
X149725000Y-100925000D01*
X150700000Y-103820000D02*
X150700000Y-100925000D01*
X150700000Y-102400000D02*
X150700000Y-100925000D01*
X149725000Y-100925000D02*
X150700000Y-100925000D01*
X150700000Y-100925000D02*
X151725000Y-100925000D01*
X150700000Y-99280000D02*
X150700000Y-100925000D01*
X150700000Y-98880000D02*
X150700000Y-99280000D01*
X149700000Y-104775000D02*
X150700000Y-104775000D01*
X151700000Y-104775000D02*
X150700000Y-104775000D01*
X150700000Y-104380000D02*
X150700000Y-104775000D01*
X150700000Y-105800000D02*
X150700000Y-104775000D01*
X149700000Y-96775000D02*
X149700000Y-97925000D01*
X148700000Y-96800000D02*
X148725000Y-96775000D01*
X148725000Y-96775000D02*
X149700000Y-96775000D01*
X148700000Y-94880000D02*
X148700000Y-96800000D01*
X148725000Y-97925000D02*
X148700000Y-97950000D01*
X148700000Y-97950000D02*
X148700000Y-99850000D01*
X149700000Y-97925000D02*
X148725000Y-97925000D01*
X152700000Y-96800000D02*
X152675000Y-96775000D01*
X152675000Y-96775000D02*
X151700000Y-96775000D01*
X152700000Y-94910000D02*
X152700000Y-96800000D01*
X151700000Y-96775000D02*
X151700000Y-97900000D01*
X151700000Y-97900000D02*
X151725000Y-97925000D01*
X152675000Y-97925000D02*
X152700000Y-97950000D01*
X152700000Y-97950000D02*
X152700000Y-99820000D01*
X151725000Y-97925000D02*
X152675000Y-97925000D01*
X151700000Y-93775000D02*
X150695000Y-93775000D01*
X149700000Y-93775000D02*
X150695000Y-93775000D01*
X150695000Y-93775000D02*
X150700000Y-93780000D01*
X150700000Y-95425000D02*
X150700000Y-96300000D01*
X150700000Y-96300000D02*
X150700000Y-98320000D01*
X150700000Y-93380000D02*
X150700000Y-93780000D01*
X150700000Y-93780000D02*
X150700000Y-95425000D01*
X150700000Y-95425000D02*
X149725000Y-95425000D01*
X151725000Y-95425000D02*
X150700000Y-95425000D01*
X149700000Y-91275000D02*
X149700000Y-92400000D01*
X149700000Y-92400000D02*
X149725000Y-92425000D01*
X148725000Y-92425000D02*
X148700000Y-92450000D01*
X148700000Y-92450000D02*
X148700000Y-94320000D01*
X149725000Y-92425000D02*
X148725000Y-92425000D01*
X151700000Y-91275000D02*
X151700000Y-92400000D01*
X151700000Y-92400000D02*
X151725000Y-92425000D01*
X152675000Y-92425000D02*
X152700000Y-92450000D01*
X152700000Y-92450000D02*
X152700000Y-94350000D01*
X151725000Y-92425000D02*
X152675000Y-92425000D01*
X150700000Y-92820000D02*
X150700000Y-91300000D01*
X150700000Y-91300000D02*
X150700000Y-89925000D01*
X149725000Y-89925000D02*
X150700000Y-89925000D01*
X150700000Y-89925000D02*
X151725000Y-89925000D01*
M02*
